<?xml version="1.0" encoding="UTF-8" standalone="no"?><!-- Generator: Gravit.io --><svg xmlns="http://www.w3.org/2000/svg" xmlns:xlink="http://www.w3.org/1999/xlink" style="isolation:isolate" viewBox="0 0 512 512" width="512pt" height="512pt"><defs><clipPath id="_clipPath_IQsWtq8AxkyieWVtRZQx5WXt5GndLzYW"><rect width="512" height="512"/></clipPath></defs><g clip-path="url(#_clipPath_IQsWtq8AxkyieWVtRZQx5WXt5GndLzYW)"><g><circle vector-effect="non-scaling-stroke" cx="256" cy="256" r="248.5" fill="rgb(0,165,207)"/></g><g><path d=" M 411.465 62.148 C 445.648 104.716 466.113 158.771 466.113 217.613 C 466.113 354.856 354.856 466.113 217.613 466.113 C 158.77 466.113 104.716 445.648 62.148 411.465 C 107.693 468.182 177.6 504.5 256 504.5 C 393.243 504.5 504.5 393.243 504.5 256 C 504.5 177.6 468.182 107.693 411.465 62.148 L 411.465 62.148 Z " fill="rgb(0,35,71)"/></g><g><path d=" M 353.326 204.093 L 299.008 223.863 L 229.858 185.488 L 189.762 199.72 L 238.468 245.898 L 182.041 266.436 L 158.274 251.675 L 103.64 271.56 L 171.184 323.898 L 370.525 251.344 C 383.573 246.595 390.301 232.167 385.552 219.119 C 380.802 206.072 366.374 199.344 353.326 204.093 L 353.326 204.093 Z " fill="rgb(235,251,255)"/></g><g><path d=" M 229.903 46.515 L 215.315 10.834 C 97.43 30.252 7.5 132.615 7.5 256 C 7.5 278 10.373 299.327 15.739 319.64 L 29.359 319.64 C 37.011 319.64 44.007 315.316 47.429 308.472 L 67.997 267.337 C 69.4 264.532 70.13 261.438 70.13 258.302 L 70.13 198.85 C 70.13 188.762 77.572 180.219 87.566 178.837 L 155.619 169.425 C 161.612 168.596 166.918 165.125 170.079 159.966 L 228.431 64.714 C 231.791 59.229 232.338 52.47 229.903 46.515 L 229.903 46.515 Z " fill="rgb(122,229,130)"/></g><g><path d=" M 344.894 23.891 L 344.894 107.811 C 344.894 122.032 352.37 135.206 364.578 142.499 L 407.557 168.175 C 417.199 173.935 424.008 183.448 426.352 194.433 L 434.703 233.577 C 437.312 245.809 434.11 258.56 426.031 268.108 L 381.73 320.464 C 375.557 327.76 372.169 337.007 372.169 346.564 L 372.169 365.909 C 372.169 379.856 379.362 392.817 391.196 400.196 L 435.512 427.829 C 478.243 383.198 504.5 322.667 504.5 256 C 504.5 150.083 438.228 59.659 344.894 23.891 L 344.894 23.891 Z " fill="rgb(122,229,130)"/></g><g><path d=" M 411.485 62.173 C 445.656 104.738 466.113 158.782 466.113 217.614 C 466.113 288.749 436.216 352.896 388.311 398.196 C 389.242 398.896 390.196 399.573 391.195 400.196 L 435.511 427.829 C 478.243 383.198 504.5 322.667 504.5 256 C 504.5 177.61 468.192 107.714 411.485 62.173 Z " fill="rgb(120,206,126)"/></g><g><path d=" M 256 504.5 C 290.506 504.5 323.366 497.462 353.231 484.751 L 326.227 466.022 C 320.648 462.153 316.515 456.537 314.479 450.059 L 310.615 437.764 C 308.002 429.45 301.967 422.646 294.025 419.059 L 286.033 415.45 C 279.061 412.301 273.522 406.654 270.509 399.623 L 264.956 386.666 C 260.136 375.42 249.078 368.128 236.843 368.128 C 225.618 368.128 215.295 374.277 209.949 384.147 L 198.118 405.989 C 194.42 412.817 188.263 417.982 180.896 420.438 L 159.321 427.63 C 153.22 429.664 147.914 433.569 144.16 438.791 L 124.133 466.644 C 162.352 490.621 207.552 504.5 256 504.5 Z " fill="rgb(122,229,130)"/></g><g><path d=" M 314.479 450.06 L 313.496 446.931 C 283.991 459.282 251.601 466.114 217.614 466.114 C 188.541 466.114 160.641 461.104 134.711 451.929 L 124.131 466.643 C 162.352 490.621 207.552 504.5 256 504.5 C 290.506 504.5 323.366 497.462 353.231 484.751 L 326.227 466.022 C 320.648 462.153 316.515 456.537 314.479 450.06 L 314.479 450.06 Z " fill="rgb(120,206,126)"/></g><g><path d=" M 391.509 241.514 C 395.194 233.612 395.58 224.748 392.599 216.555 C 389.617 208.362 383.622 201.82 375.721 198.136 C 367.819 194.452 358.955 194.064 350.761 197.046 L 299.657 215.647 L 233.498 178.932 C 231.616 177.887 229.376 177.702 227.35 178.422 L 187.253 192.654 C 184.794 193.527 182.966 195.614 182.425 198.167 C 181.884 200.72 182.708 203.37 184.602 205.165 L 224.508 243 L 182.902 258.144 L 162.231 245.307 C 160.275 244.092 157.871 243.845 155.709 244.63 L 101.075 264.515 C 98.509 265.45 96.652 267.705 96.23 270.404 C 95.808 273.103 96.887 275.818 99.046 277.491 L 166.59 329.829 C 167.924 330.863 169.545 331.4 171.185 331.4 C 172.047 331.4 172.915 331.251 173.749 330.948 L 283.105 291.145 C 286.997 289.728 289.004 285.424 287.587 281.532 C 286.17 277.64 281.866 275.633 277.974 277.05 L 172.506 315.438 L 118.979 273.961 L 157.413 259.972 L 178.084 272.809 C 180.041 274.024 182.446 274.272 184.606 273.486 L 241.033 252.948 C 243.474 252.059 245.282 249.97 245.81 247.426 C 246.339 244.882 245.513 242.246 243.627 240.458 L 203.8 202.698 L 229.177 193.69 L 295.368 230.423 C 297.267 231.477 299.529 231.655 301.573 230.913 L 355.89 211.143 C 365.03 207.813 375.174 212.546 378.501 221.687 C 381.828 230.828 377.099 240.972 367.957 244.299 L 311.008 265.027 C 307.116 266.444 305.109 270.748 306.526 274.64 C 307.942 278.533 312.245 280.54 316.139 279.123 L 373.088 258.395 C 381.282 255.41 387.824 249.416 391.509 241.514 L 391.509 241.514 Z " fill="rgb(0,0,0)"/><path d=" M 437.02 74.98 C 388.668 26.629 324.38 0 256 0 C 216.682 0 178.957 8.68 143.875 25.798 C 140.152 27.614 138.607 32.105 140.424 35.827 C 142.241 39.549 146.73 41.095 150.453 39.278 C 169.733 29.871 189.868 23.192 210.652 19.246 L 222.961 49.352 C 224.486 53.081 224.14 57.36 222.035 60.795 L 163.683 156.046 C 161.687 159.303 158.372 161.471 154.59 161.994 L 86.537 171.406 C 72.907 173.291 62.629 185.088 62.629 198.848 L 62.629 258.3 C 62.629 260.261 62.165 262.226 61.288 263.981 L 40.721 305.116 C 38.555 309.448 34.201 312.138 29.359 312.138 L 21.617 312.138 C 17.301 294.12 15 275.325 15 256 C 15 175.974 54.601 101.348 120.931 56.377 C 124.36 54.053 125.254 49.389 122.93 45.961 C 120.606 42.532 115.941 41.637 112.513 43.961 C 42.061 91.728 0 170.994 0 256 C 0 324.38 26.629 388.667 74.98 437.019 C 123.333 485.372 187.62 512 256 512 C 300.629 512 344.57 500.341 383.075 478.283 C 386.669 476.224 387.913 471.641 385.854 468.047 C 383.794 464.452 379.212 463.208 375.618 465.267 C 368.613 469.28 361.414 472.923 354.058 476.196 L 330.502 459.859 C 326.312 456.953 323.162 452.674 321.635 447.811 L 317.771 435.515 C 314.52 425.175 306.991 416.685 297.112 412.224 L 289.12 408.615 C 283.845 406.232 279.682 401.989 277.402 396.669 L 271.849 383.711 C 265.838 369.688 252.098 360.628 236.842 360.628 C 222.85 360.628 210.018 368.271 203.353 380.574 L 191.522 402.416 C 188.72 407.589 184.103 411.462 178.522 413.322 L 156.947 420.513 C 149.301 423.062 142.774 427.867 138.069 434.411 L 122.266 456.388 C 76.809 425.953 42.232 380.481 25.72 327.14 L 29.359 327.14 C 39.92 327.14 49.414 321.272 54.137 311.826 L 74.704 270.69 C 76.618 266.863 77.629 262.579 77.629 258.301 L 77.629 198.85 C 77.629 192.54 82.342 187.131 88.592 186.267 L 156.645 176.855 C 164.894 175.714 172.121 170.987 176.473 163.885 L 234.826 68.633 C 239.416 61.14 240.171 51.811 236.846 43.677 L 225.884 16.865 C 235.797 15.638 245.839 15 256 15 C 284.553 15 311.956 20.004 337.395 29.159 L 337.395 107.811 C 337.395 124.579 346.337 140.337 360.732 148.937 L 403.711 174.613 C 411.535 179.287 417.114 187.081 419.017 195.996 L 427.368 235.141 C 429.477 245.03 426.838 255.542 420.305 263.262 L 376.004 315.618 C 368.694 324.257 364.669 335.247 364.669 346.563 L 364.669 365.908 C 364.669 382.555 373.103 397.752 387.228 406.559 L 423.57 429.219 C 417.39 435.178 410.871 440.863 403.996 446.221 C 400.728 448.767 400.143 453.479 402.689 456.747 C 404.168 458.645 406.377 459.638 408.61 459.638 C 410.221 459.638 411.845 459.121 413.214 458.054 C 443.285 434.623 468.159 404.265 485.147 370.262 C 502.965 334.595 512 296.151 512 256 C 512 187.62 485.371 123.333 437.02 74.98 L 437.02 74.98 Z  M 150.246 443.169 C 153.099 439.202 157.056 436.289 161.69 434.744 L 183.265 427.553 C 192.472 424.484 200.088 418.095 204.71 409.561 L 216.541 387.719 C 220.581 380.261 228.359 375.628 236.841 375.628 C 246.088 375.628 254.417 381.121 258.061 389.62 L 263.614 402.578 C 267.377 411.356 274.241 418.354 282.945 422.286 L 290.937 425.895 C 296.925 428.599 301.49 433.745 303.459 440.013 L 307.323 452.308 C 309.844 460.331 315.04 467.391 321.952 472.185 L 337.374 482.881 C 311.405 492.175 283.847 497 256 497 C 211.93 497 170.591 485.099 135.011 464.358 L 150.246 443.169 Z  M 434.292 418.228 L 395.165 393.831 C 385.463 387.781 379.67 377.343 379.67 365.908 L 379.67 346.563 C 379.67 338.79 382.436 331.241 387.456 325.308 L 431.757 272.952 C 441.266 261.714 445.11 246.41 442.038 232.012 L 433.687 192.867 C 430.917 179.888 422.795 168.541 411.404 161.736 L 368.425 136.06 C 358.537 130.153 352.395 119.328 352.395 107.81 L 352.395 35.142 C 437.435 72.402 497 157.369 497 256 C 497 316.92 474.531 374.191 434.292 418.228 L 434.292 418.228 Z " fill="rgb(0,0,0)"/><path d=" M 347.344 348.935 C 347.344 344.793 343.987 341.435 339.844 341.435 L 324.692 341.435 C 320.549 341.435 317.192 344.793 317.192 348.935 C 317.192 353.077 320.549 356.435 324.692 356.435 L 339.844 356.435 C 343.986 356.435 347.344 353.077 347.344 348.935 Z " fill="rgb(0,0,0)"/><path d=" M 304.488 373.76 C 300.345 373.76 296.988 377.118 296.988 381.26 C 296.988 385.402 300.345 388.76 304.488 388.76 L 319.64 388.76 C 323.783 388.76 327.14 385.402 327.14 381.26 C 327.14 377.118 323.783 373.76 319.64 373.76 L 304.488 373.76 Z " fill="rgb(0,0,0)"/></g></g></svg>